 http://www.imdb.com/title/tt0093748

Source: Planes.Trains.Automobiles.1987.BluRay.720p.DTS.x264-CHD Thanks!

Subs: Arabic, Croatian, Danish, Dutch, English, Finnish, French, German, Greek, Servian, Slovenian and Swedish.

Sample and Screens included.

General
Complete name                            : Planes Trains and Automobiles-720p MP4 AAC x264 BRRip 1987-CC.mp4
Format                                   : MPEG-4
Format profile                           : Base Media
Codec ID                                 : isom
File size                                : 3.02 GiB
Duration                                 : 1h 32mn
Overall bit rate mode                    : Variable
Overall bit rate                         : 4 676 Kbps
Encoded date                             : UTC 2012-12-03 18:32:28

Video
ID                                       : 1
Format                                   : AVC
Format/Info                              : Advanced Video Codec
Format profile                           : High@L4.1
Format settings, CABAC                   : Yes
Format settings, ReFrames                : 5 frames
Codec ID                                 : avc1
Codec ID/Info                            : Advanced Video Coding
Duration                                 : 1h 32mn
Bit rate                                 : 4 314 Kbps
Maximum bit rate                         : 18.2 Mbps
Width                                    : 1 280 pixels
Height                                   : 720 pixels
Display aspect ratio                     : 16:9
Frame rate mode                          : Variable
Frame rate                               : 23.976 fps
Minimum frame rate                       : 19.048 fps
Maximum frame rate                       : 24.390 fps
Color space                              : YUV
Chroma subsampling                       : 4:2:0
Bit depth                                : 8 bits
Scan type                                : Progressive
Bits/(Pixel*Frame)                       : 0.195
Stream size                              : 2.77 GiB (92%)
Writing library                          : x264 core 112

Audio
ID                                       : 2
Format                                   : AAC
Format/Info                              : Advanced Audio Codec
Format profile                           : LC
Codec ID                                 : 40
Duration                                 : 1h 32mn
Bit rate mode                            : Variable
Bit rate                                 : 384 Kbps
Maximum bit rate                         : 704 Kbps
Channel(s)                               : 6 channels
Channel positions                        : Front: L C R, Side: L R, LFE
Sampling rate                            : 48.0 KHz
Compression mode                         : Lossy
Delay relative to video                  : 83ms
Stream size                              : 253 MiB (8%)
Language                                 : English

Enjoy...

Requested by SectorVector

Coming soon: The Gold Rush, Donnie Darko, Buffalo 66, The Objective and more...